<?xml version="1.0"?>
<svg xmlns="http://www.w3.org/2000/svg" id="Capa_1" enable-background="new 0 0 512 512" height="512px" viewBox="0 0 512 512" width="512px"><g><g><path d="m467 86h-422c-24.813 0-45 20.187-45 45v250c0 24.813 20.187 45 45 45h422c24.813 0 45-20.187 45-45v-250c0-24.813-20.187-45-45-45zm15 295c0 8.271-6.729 15-15 15h-422c-8.271 0-15-6.729-15-15v-250c0-8.271 6.729-15 15-15h422c8.271 0 15 6.729 15 15z" data-original="#000000" class="active-path" data-old_color="#000000" fill="#0E2A47"/><path d="m187.6 251.917c8.338-9.644 13.4-22.197 13.4-35.917 0-30.327-24.673-55-55-55s-55 24.673-55 55c0 13.72 5.062 26.273 13.4 35.917-25.876 14.588-43.4 42.32-43.4 74.083v10c0 8.284 6.716 15 15 15h140c8.284 0 15-6.716 15-15v-10c0-31.763-17.524-59.495-43.4-74.083zm-66.6-35.917c0-13.785 11.215-25 25-25s25 11.215 25 25-11.215 25-25 25-25-11.215-25-25zm-29.774 105c2.533-27.994 26.132-50 54.774-50s52.241 22.006 54.774 50z" data-original="#000000" class="active-path" data-old_color="#000000" fill="#0E2A47"/><path d="m351 156c-55.141 0-100 44.86-100 100s44.859 100 100 100 100-44.86 100-100-44.859-100-100-100zm0 170c-38.598 0-70-31.402-70-70s31.402-70 70-70 70 31.402 70 70-31.402 70-70 70z" data-original="#000000" class="active-path" data-old_color="#000000" fill="#0E2A47"/><path d="m381 241h-15v-15c0-8.284-6.716-15-15-15s-15 6.716-15 15v15h-15c-8.284 0-15 6.716-15 15s6.716 15 15 15h15v15c0 8.284 6.716 15 15 15s15-6.716 15-15v-15h15c8.284 0 15-6.716 15-15s-6.716-15-15-15z" data-original="#000000" class="active-path" data-old_color="#000000" fill="#0E2A47"/></g></g> </svg>
