<?xml version="1.0"?>
<svg xmlns="http://www.w3.org/2000/svg" id="bold" enable-background="new 0 0 24 24" height="512px" viewBox="0 0 24 24" width="512px" class=""><g><path d="m18.66 12.62c-.22-.14-.49-.16-.72-.05l-2.49 1.12c.04.18.05.37.05.56v7.5c0 .19-.01.38-.05.56l2.49 1.12c.1.05.21.07.31.07.14 0 .28-.04.41-.12.21-.14.34-.38.34-.63v-9.5c0-.25-.13-.49-.34-.63z" data-original="#000000" class="active-path" data-old_color="#000000" fill="#5F7D95"/><path d="m11.75 24h-9.5c-1.24 0-2.25-1.009-2.25-2.25v-7.5c0-1.241 1.01-2.25 2.25-2.25h9.5c1.24 0 2.25 1.009 2.25 2.25v7.5c0 1.241-1.01 2.25-2.25 2.25z" data-original="#000000" class="active-path" data-old_color="#000000" fill="#5F7D95"/><path d="m22.25 0h-8.5c-.965 0-1.75.785-1.75 1.75v4.5c0 .965.785 1.75 1.75 1.75h1.25v2.25c0 .309.19.587.478.699.088.034.181.051.272.051.206 0 .408-.085.553-.243l2.527-2.757h3.42c.965 0 1.75-.785 1.75-1.75v-4.5c0-.965-.785-1.75-1.75-1.75zm-6.75 4.75c-.414 0-.75-.336-.75-.75s.336-.75.75-.75.75.336.75.75-.336.75-.75.75zm2.5 0c-.414 0-.75-.336-.75-.75s.336-.75.75-.75.75.336.75.75-.336.75-.75.75zm2.5 0c-.414 0-.75-.336-.75-.75s.336-.75.75-.75.75.336.75.75-.336.75-.75.75z" data-original="#000000" class="active-path" data-old_color="#000000" fill="#5F7D95"/></g> </svg>
