<?xml version="1.0" encoding="utf-8"?>
<!-- Generator: Adobe Illustrator 23.1.0, SVG Export Plug-In . SVG Version: 6.00 Build 0)  -->
<svg version="1.1" id="Layer_1" xmlns="http://www.w3.org/2000/svg" xmlns:xlink="http://www.w3.org/1999/xlink" x="0px" y="0px"
	 viewBox="0 0 500 500" style="enable-background:new 0 0 500 500;" xml:space="preserve">
<style type="text/css">
	.st0{opacity:0.2;}
	.st1{enable-background:new    ;}
	.st2{clip-path:url(#SVGID_2_);enable-background:new    ;}
	.st3{fill:#B2C5CC;}
	.st4{fill:#ADC0C7;}
	.st5{fill:#A9BBC2;}
	.st6{fill:#A4B6BD;}
	.st7{fill:#A0B1B8;}
	.st8{fill:#9BACB3;}
	.st9{fill:#97A7AD;}
	.st10{fill:#93A2A8;}
	.st11{fill:#8E9DA3;}
	.st12{fill:#8A999E;}
	.st13{fill:#859499;}
	.st14{fill:#818F94;}
	.st15{fill:#7C8A8F;}
	.st16{fill:#78858A;}
	.st17{fill:#738085;}
	.st18{clip-path:url(#SVGID_4_);enable-background:new    ;}
	.st19{clip-path:url(#SVGID_6_);enable-background:new    ;}
	.st20{fill:#87ABBB;}
	.st21{fill:#84A7B7;}
	.st22{fill:#80A3B2;}
	.st23{fill:#7D9EAD;}
	.st24{fill:#7A9AA8;}
	.st25{fill:#7696A4;}
	.st26{fill:#73929F;}
	.st27{fill:#708D9A;}
	.st28{fill:#6C8996;}
	.st29{fill:#698591;}
	.st30{clip-path:url(#SVGID_8_);enable-background:new    ;}
	.st31{fill:#586F7A;}
	.st32{fill:#5B747E;}
	.st33{fill:#5F7883;}
	.st34{fill:#627C88;}
	.st35{fill:#65808C;}
	.st36{fill:#A895DF;}
	.st37{fill:#BFD4DB;}
	.st38{fill:#778488;}
	.st39{fill:#92B6EA;}
	.st40{fill:#91B8C9;}
	.st41{fill:#5A727D;}
	.st42{fill:#DCE4FF;}
	.st43{opacity:0.1;}
	.st44{fill:#22303A;}
	.st45{fill:#2B3C4B;}
	.st46{fill:#F1B287;}
	.st47{fill:#231202;}
	.st48{fill:#C3BBB7;}
	.st49{fill:#EFB185;}
	.st50{fill:#E6A376;}
	.st51{fill:#124F6C;}
	.st52{fill:#1D6786;}
	.st53{fill:#2982AC;}
	.st54{fill:#301806;}
	.st55{fill:#E8A476;}
	.st56{fill:#DB9669;}
	.st57{fill:#455E1B;}
	.st58{fill:#00A089;}
	.st59{fill:#A8A8A8;}
	.st60{fill:#EBEBF0;}
	.st61{fill:#5F7D20;}
	.st62{fill:#E3E3E5;}
	.st63{fill:#939393;}
	.st64{fill:#4B6E21;}
	.st65{fill:#781E11;}
	.st66{fill:#AC2A19;}
	.st67{fill:#C02F1C;}
	.st68{fill:#DF7B03;}
	.st69{fill:#EB8601;}
	.st70{fill:#F79420;}
	.st71{fill:#1D2833;}
	.st72{fill:#111114;}
	.st73{fill:#131C24;}
	.st74{fill:#0E1419;}
	.st75{fill:#BAD1DE;}
	.st76{fill:#1C2933;}
	.st77{fill:#89B7C9;}
	.st78{fill:#2B3D4B;}
	.st79{fill:#FEFFFF;}
	.st80{fill:#DD9569;}
	.st81{fill:#F2B78F;}
	.st82{fill:#341C09;}
	.st83{fill:#221101;}
	.st84{fill:#B4B9BC;}
	.st85{fill:#7D8183;}
	.st86{fill:#E3E5E5;}
	.st87{fill:#BDBBBB;}
	.st88{fill:#B3B3B3;}
	.st89{fill:#D4D4D4;}
	.st90{fill:#ED8001;}
	.st91{fill:#171716;}
	.st92{fill:#401E2C;}
	.st93{opacity:0.3;fill:#123F5D;}
	.st94{fill:#59253B;}
	.st95{opacity:0.2;fill:#1A4B6C;}
	.st96{fill:#EC6665;}
	.st97{fill:#D75150;}
	.st98{fill:#FF8183;}
	.st99{fill:#D2D0D0;}
	.st100{fill:#D5DFE6;}
	.st101{fill:#E9F0F4;}
</style>
<g>
	<g>
		<g>
			<g class="st0">
				<path d="M261.45,244.13c-9.06,5.23-9.12,13.71-0.11,18.95l29.74,17.28c9.01,5.23,23.66,5.23,32.72,0l38.55-22.26
					c9.07-5.23,9.12-13.72,0.11-18.95l-29.74-17.28c-9.01-5.23-23.65-5.23-32.72,0L261.45,244.13z"/>
			</g>
			<g class="st1">
				<defs>
					<path id="SVGID_1_" class="st1" d="M351.02,245.26c-0.01-1.54-0.55-2.62-1.43-3.13c1.74,1.01,3.48,2.02,5.22,3.03l0,0
						c0.88,0.51,1.42,1.59,1.43,3.14c0.01,3.09-2.16,6.86-4.85,8.42l-5.21-3.03C348.86,252.13,351.03,248.36,351.02,245.26z"/>
				</defs>
				<clipPath id="SVGID_2_">
					<use xlink:href="#SVGID_1_"  style="overflow:visible;"/>
				</clipPath>
				<g class="st2">
					<path class="st3" d="M351.39,256.72l-5.21-3.03c0.57-0.33,1.12-0.76,1.63-1.26l5.21,3.02
						C352.51,255.96,351.96,256.39,351.39,256.72L351.39,256.72z"/>
					<path class="st4" d="M353.01,255.45l-5.21-3.02c0.18-0.19,0.36-0.37,0.53-0.57l5.22,3.03
						C353.38,255.09,353.2,255.27,353.01,255.45L353.01,255.45z"/>
					<path class="st5" d="M353.55,254.89l-5.22-3.03c0.14-0.15,0.27-0.32,0.4-0.49l5.22,3.03
						C353.82,254.57,353.69,254.73,353.55,254.89L353.55,254.89z"/>
					<path class="st6" d="M353.94,254.4l-5.22-3.03c0.11-0.14,0.21-0.29,0.32-0.43l5.22,3.02
						C354.16,254.11,354.06,254.26,353.94,254.4L353.94,254.4z"/>
					<path class="st7" d="M354.27,253.96l-5.22-3.02c0.1-0.14,0.19-0.28,0.28-0.43l5.22,3.03
						C354.46,253.69,354.37,253.82,354.27,253.96L354.27,253.96z"/>
					<path class="st8" d="M354.55,253.54l-5.22-3.03c0.08-0.13,0.17-0.27,0.25-0.41l5.22,3.02
						C354.72,253.27,354.64,253.41,354.55,253.54L354.55,253.54z"/>
					<path class="st9" d="M354.8,253.12l-5.22-3.02c0.08-0.14,0.15-0.27,0.23-0.41l5.22,3.02
						C354.96,252.86,354.88,252.99,354.8,253.12L354.8,253.12z"/>
					<path class="st10" d="M355.03,252.72l-5.22-3.02c0.08-0.14,0.14-0.28,0.21-0.42l5.23,3.03
						C355.18,252.45,355.11,252.58,355.03,252.72L355.03,252.72z"/>
					<path class="st11" d="M355.24,252.3l-5.23-3.03c0.07-0.14,0.14-0.27,0.19-0.42l5.23,3.03
						C355.37,252.02,355.31,252.16,355.24,252.3L355.24,252.3z"/>
					<path class="st12" d="M355.44,251.88l-5.23-3.03c0.07-0.14,0.12-0.29,0.18-0.43l5.22,3.03
						C355.56,251.58,355.5,251.73,355.44,251.88L355.44,251.88z"/>
					<path class="st13" d="M355.61,251.45l-5.22-3.03c0.06-0.16,0.11-0.31,0.16-0.46l5.23,3.02
						C355.72,251.13,355.67,251.29,355.61,251.45L355.61,251.45z"/>
					<path class="st14" d="M355.78,250.98l-5.23-3.02c0.06-0.17,0.11-0.34,0.15-0.5l5.22,3.02
						C355.88,250.65,355.83,250.81,355.78,250.98L355.78,250.98z"/>
					<path class="st15" d="M355.92,250.48l-5.22-3.02c0.05-0.18,0.1-0.37,0.14-0.56l5.22,3.03
						C356.02,250.11,355.98,250.3,355.92,250.48L355.92,250.48z"/>
					<path class="st16" d="M356.06,249.93l-5.22-3.03c0.05-0.23,0.09-0.45,0.12-0.68l5.22,3.02
						C356.15,249.47,356.11,249.7,356.06,249.93L356.06,249.93z"/>
					<path class="st17" d="M356.18,249.24l-5.22-3.02c0.04-0.32,0.06-0.64,0.06-0.96c-0.01-1.54-0.55-2.62-1.43-3.13l5.22,3.03
						c0.88,0.51,1.42,1.59,1.43,3.14C356.25,248.6,356.22,248.92,356.18,249.24L356.18,249.24z"/>
				</g>
			</g>
			<g class="st1">
				<defs>
					<path id="SVGID_3_" class="st1" d="M342.69,254.04c0.89,0.52,2.12,0.44,3.49-0.35l5.21,3.03c-1.36,0.79-2.59,0.86-3.48,0.34
						C346.34,256.16,344.25,254.94,342.69,254.04z"/>
				</defs>
				<clipPath id="SVGID_4_">
					<use xlink:href="#SVGID_3_"  style="overflow:visible;"/>
				</clipPath>
				<g class="st18">
					<path class="st12" d="M347.91,257.06l-5.22-3.02c0.01,0,0.02,0.01,0.03,0.01l5.22,3.02
						C347.93,257.08,347.92,257.07,347.91,257.06L347.91,257.06z"/>
					<path class="st11" d="M347.94,257.08l-5.22-3.02c0.07,0.04,0.16,0.08,0.24,0.12l5.22,3.03
						C348.09,257.17,348.02,257.13,347.94,257.08L347.94,257.08z"/>
					<path class="st10" d="M348.18,257.2l-5.22-3.03c0.08,0.04,0.17,0.07,0.25,0.1l5.22,3.02
						C348.35,257.25,348.27,257.23,348.18,257.2L348.18,257.2z"/>
					<path class="st9" d="M348.44,257.29l-5.22-3.02c0.09,0.02,0.18,0.04,0.27,0.06l5.22,3.03
						C348.62,257.34,348.53,257.31,348.44,257.29L348.44,257.29z"/>
					<path class="st8" d="M348.71,257.35l-5.22-3.03c0.1,0.02,0.2,0.03,0.29,0.03l5.23,3.03
						C348.9,257.38,348.81,257.37,348.71,257.35L348.71,257.35z"/>
					<path class="st7" d="M349.01,257.39l-5.23-3.03c0.11,0.01,0.22,0.01,0.33,0.01l5.21,3.02
						C349.23,257.4,349.12,257.39,349.01,257.39L349.01,257.39z"/>
					<path class="st6" d="M349.33,257.39l-5.21-3.02c0.11-0.01,0.24-0.02,0.36-0.04l5.21,3.02
						C349.57,257.37,349.45,257.39,349.33,257.39L349.33,257.39z"/>
					<path class="st5" d="M349.69,257.35l-5.21-3.02c0.14-0.02,0.28-0.05,0.43-0.1l5.22,3.02
						C349.98,257.3,349.84,257.33,349.69,257.35L349.69,257.35z"/>
					<path class="st4" d="M350.13,257.25l-5.22-3.02c0.19-0.05,0.38-0.12,0.58-0.2l5.21,3.03
						C350.5,257.14,350.31,257.21,350.13,257.25L350.13,257.25z"/>
					<path class="st3" d="M350.7,257.06l-5.21-3.03c0.22-0.1,0.45-0.2,0.69-0.34l5.21,3.03
						C351.16,256.85,350.93,256.96,350.7,257.06L350.7,257.06z"/>
				</g>
			</g>
			<g class="st1">
				<defs>
					<path id="SVGID_5_" class="st1" d="M349.59,242.13l5.22,3.03c-0.89-0.52-2.11-0.44-3.47,0.34l-5.22-3.02
						C347.48,241.69,348.7,241.62,349.59,242.13z"/>
				</defs>
				<clipPath id="SVGID_6_">
					<use xlink:href="#SVGID_5_"  style="overflow:visible;"/>
				</clipPath>
				<g class="st19">
					<path class="st20" d="M351.35,245.5l-5.22-3.02c0.23-0.14,0.45-0.26,0.68-0.35l5.22,3.02
						C351.8,245.26,351.57,245.37,351.35,245.5L351.35,245.5z"/>
					<path class="st21" d="M352.03,245.16l-5.22-3.02c0.2-0.08,0.39-0.15,0.57-0.2l5.23,3.02
						C352.42,245.01,352.23,245.08,352.03,245.16L352.03,245.16z"/>
					<path class="st22" d="M352.6,244.96l-5.23-3.02c0.14-0.05,0.29-0.08,0.43-0.1l5.22,3.03
						C352.89,244.89,352.75,244.92,352.6,244.96L352.6,244.96z"/>
					<path class="st23" d="M353.02,244.87l-5.22-3.03c0.13-0.01,0.25-0.03,0.36-0.03l5.22,3.02
						C353.28,244.84,353.15,244.85,353.02,244.87L353.02,244.87z"/>
					<path class="st24" d="M353.39,244.83l-5.22-3.02c0.11-0.01,0.22-0.01,0.33,0l5.22,3.03
						C353.61,244.83,353.5,244.83,353.39,244.83L353.39,244.83z"/>
					<path class="st25" d="M353.71,244.84l-5.22-3.03c0.1,0.01,0.19,0.02,0.29,0.03l5.22,3.03
						C353.91,244.85,353.81,244.84,353.71,244.84L353.71,244.84z"/>
					<path class="st26" d="M354.01,244.87l-5.22-3.03c0.1,0.02,0.18,0.04,0.28,0.08l5.22,3.02
						C354.19,244.9,354.1,244.88,354.01,244.87L354.01,244.87z"/>
					<path class="st27" d="M354.28,244.93l-5.22-3.02c0.09,0.03,0.17,0.05,0.25,0.08l5.23,3.03
						C354.45,244.99,354.37,244.96,354.28,244.93L354.28,244.93z"/>
					<path class="st28" d="M354.54,245.03l-5.23-3.03c0.09,0.03,0.17,0.08,0.25,0.12l5.22,3.02
						C354.71,245.1,354.62,245.06,354.54,245.03L354.54,245.03z"/>
					<path class="st29" d="M354.78,245.14l-5.22-3.02c0.01,0,0.02,0,0.03,0.01l5.22,3.03C354.8,245.15,354.79,245.15,354.78,245.14
						L354.78,245.14z"/>
				</g>
			</g>
			<g class="st1">
				<defs>
					<path id="SVGID_7_" class="st1" d="M347.91,257.06c-1.39-0.8-2.79-1.61-4.18-2.42c-0.08-0.05-0.18-0.1-0.26-0.16
						c-0.26-0.14-0.53-0.3-0.79-0.45c-0.88-0.51-1.42-1.59-1.42-3.13c-0.01-3.1,2.15-6.88,4.86-8.43l5.22,3.02
						c-2.7,1.57-4.88,5.33-4.87,8.45C346.49,255.48,347.03,256.56,347.91,257.06z"/>
				</defs>
				<clipPath id="SVGID_8_">
					<use xlink:href="#SVGID_7_"  style="overflow:visible;"/>
				</clipPath>
				<g class="st30">
					<path class="st31" d="M347.91,257.06l-5.22-3.02c-0.88-0.51-1.42-1.59-1.42-3.13c-0.01-0.32,0.01-0.63,0.05-0.96l5.23,3.02
						c-0.05,0.33-0.07,0.64-0.07,0.96C346.49,255.48,347.03,256.56,347.91,257.06L347.91,257.06z"/>
					<path class="st32" d="M346.55,252.98l-5.23-3.02c0.03-0.23,0.07-0.45,0.12-0.68l5.22,3.03
						C346.62,252.53,346.57,252.76,346.55,252.98L346.55,252.98z"/>
					<path class="st33" d="M346.66,252.31l-5.22-3.03c0.04-0.18,0.09-0.37,0.14-0.56l5.21,3.02
						C346.75,251.93,346.7,252.12,346.66,252.31L346.66,252.31z"/>
					<path class="st34" d="M346.8,251.74l-5.21-3.02c0.04-0.16,0.09-0.33,0.15-0.5l5.21,3.02
						C346.89,251.41,346.85,251.58,346.8,251.74L346.8,251.74z"/>
					<path class="st35" d="M346.95,251.24l-5.21-3.02c0.05-0.15,0.1-0.31,0.16-0.46l5.22,3.02
						C347.06,250.94,347,251.09,346.95,251.24L346.95,251.24z"/>
					<path class="st29" d="M347.11,250.78l-5.22-3.02c0.05-0.15,0.12-0.29,0.18-0.43l5.22,3.02
						C347.23,250.49,347.18,250.64,347.11,250.78L347.11,250.78z"/>
					<path class="st28" d="M347.29,250.34l-5.22-3.02c0.06-0.15,0.12-0.29,0.19-0.43l5.21,3.03
						C347.42,250.06,347.35,250.2,347.29,250.34L347.29,250.34z"/>
					<path class="st27" d="M347.48,249.93l-5.21-3.03c0.06-0.14,0.14-0.28,0.21-0.42l5.22,3.03
						C347.62,249.65,347.55,249.78,347.48,249.93L347.48,249.93z"/>
					<path class="st26" d="M347.7,249.51l-5.22-3.03c0.07-0.14,0.14-0.27,0.23-0.41l5.22,3.02
						C347.84,249.23,347.76,249.37,347.7,249.51L347.7,249.51z"/>
					<path class="st25" d="M347.92,249.1l-5.22-3.02c0.08-0.14,0.17-0.28,0.25-0.41l5.22,3.03
						C348.09,248.82,348.01,248.96,347.92,249.1L347.92,249.1z"/>
					<path class="st24" d="M348.18,248.68l-5.22-3.03c0.09-0.14,0.19-0.28,0.28-0.42l5.22,3.02
						C348.36,248.4,348.27,248.54,348.18,248.68L348.18,248.68z"/>
					<path class="st23" d="M348.46,248.26l-5.22-3.02c0.11-0.15,0.21-0.3,0.33-0.44l5.22,3.02
						C348.67,247.96,348.56,248.11,348.46,248.26L348.46,248.26z"/>
					<path class="st22" d="M348.78,247.82l-5.22-3.02c0.12-0.17,0.25-0.33,0.39-0.48l5.22,3.02
						C349.04,247.49,348.9,247.66,348.78,247.82L348.78,247.82z"/>
					<path class="st21" d="M349.17,247.34l-5.22-3.02c0.17-0.2,0.35-0.38,0.54-0.57l5.21,3.02
						C349.52,246.95,349.35,247.14,349.17,247.34L349.17,247.34z"/>
					<path class="st20" d="M349.71,246.77l-5.21-3.02c0.51-0.5,1.06-0.94,1.63-1.27l5.22,3.02
						C350.77,245.83,350.22,246.26,349.71,246.77L349.71,246.77z"/>
				</g>
			</g>
			<g>
				<path class="st36" d="M351.35,245.5c2.69-1.56,4.88-0.31,4.89,2.8c0.01,3.09-2.16,6.86-4.85,8.42c-2.7,1.56-4.89,0.32-4.91-2.78
					C346.47,250.83,348.64,247.06,351.35,245.5z"/>
			</g>
			<g>
				<polygon class="st37" points="311.29,262.3 306.07,259.27 386.33,212.79 391.55,215.81 				"/>
			</g>
			<g>
				<polygon class="st38" points="391.55,215.81 386.33,212.79 385.83,92.57 391.05,95.58 				"/>
			</g>
			<g>
				<g>
					<polygon class="st39" points="391.06,95.58 391.55,215.81 311.29,262.3 310.78,142.07 					"/>
				</g>
			</g>
			<g>
				<polygon class="st40" points="310.78,142.07 305.57,139.05 385.83,92.57 391.06,95.58 				"/>
			</g>
			<g>
				<polygon class="st41" points="311.29,262.3 306.07,259.27 305.57,139.05 310.78,142.07 				"/>
			</g>
			<path class="st39" d="M305.07,285.76l-0.6-143.98l-5.23-3.02l0.6,143.99c0,1.33,0.47,2.26,1.23,2.69l5.22,3.03
				C305.55,288.02,305.08,287.09,305.07,285.76z"/>
			<g>
				<path class="st42" d="M393.64,85.29c2.32-1.34,4.21-0.27,4.22,2.4l0.6,143.98c0.01,2.67-1.86,5.92-4.18,7.26l-84.99,49.22
					c-2.33,1.34-4.21,0.28-4.22-2.4l-0.6-143.98c-0.01-2.67,1.85-5.92,4.18-7.26L393.64,85.29z M391.55,215.81l-0.5-120.23
					l-80.26,46.49l0.5,120.23L391.55,215.81L391.55,215.81z M351.39,256.72c2.69-1.56,4.86-5.33,4.85-8.42
					c-0.01-3.11-2.2-4.36-4.89-2.8c-2.7,1.57-4.88,5.33-4.87,8.45C346.5,257.04,348.69,258.28,351.39,256.72L351.39,256.72z"/>
			</g>
			<path class="st39" d="M391.41,81.98c-0.01,0-0.01-0.01-0.02-0.01c-0.07-0.04-0.14-0.07-0.21-0.1c-0.07-0.03-0.14-0.06-0.22-0.08
				c-0.04-0.01-0.1-0.02-0.15-0.03c-0.01,0-0.02-0.01-0.04-0.01c-0.02,0-0.03-0.01-0.05-0.01c-0.08-0.02-0.16-0.03-0.25-0.03
				c-0.09,0-0.18-0.01-0.28,0c-0.03,0-0.06,0.01-0.09,0.01c-0.02,0-0.05,0-0.06,0.01c-0.05,0-0.1,0-0.16,0.01
				c-0.12,0.02-0.24,0.05-0.36,0.08c-0.05,0.02-0.11,0.04-0.16,0.06c-0.05,0.01-0.1,0.03-0.14,0.04c-0.07,0.03-0.13,0.04-0.2,0.07
				c-0.18,0.08-0.38,0.17-0.58,0.29l-84.99,49.22c-0.27,0.16-0.53,0.35-0.79,0.55c-0.08,0.07-0.16,0.15-0.25,0.22
				c-0.13,0.1-0.25,0.21-0.37,0.32c-0.05,0.05-0.1,0.11-0.15,0.16c-0.05,0.05-0.1,0.1-0.14,0.16c-0.05,0.06-0.11,0.11-0.16,0.17
				c-0.12,0.13-0.24,0.27-0.34,0.41c-0.03,0.05-0.08,0.1-0.11,0.15c-0.02,0.03-0.04,0.06-0.07,0.09c-0.04,0.05-0.07,0.09-0.11,0.14
				c-0.08,0.12-0.17,0.24-0.24,0.36c-0.07,0.12-0.14,0.23-0.21,0.35c-0.01,0.01-0.02,0.02-0.03,0.03c0,0.01-0.01,0.02-0.01,0.02
				c-0.05,0.1-0.11,0.2-0.17,0.3c-0.05,0.12-0.12,0.24-0.18,0.36c-0.05,0.1-0.11,0.21-0.15,0.33c-0.01,0.01-0.01,0.01-0.01,0.01
				c0,0.01-0.01,0.01-0.01,0.02c-0.05,0.12-0.1,0.25-0.16,0.38c-0.05,0.12-0.1,0.26-0.14,0.39c-0.02,0.07-0.04,0.14-0.06,0.2
				c-0.01,0.03-0.02,0.06-0.03,0.09c-0.01,0.05-0.03,0.1-0.04,0.14c-0.04,0.17-0.08,0.33-0.12,0.48c-0.02,0.1-0.04,0.19-0.05,0.28
				c-0.01,0.06-0.02,0.12-0.03,0.17c0,0.05-0.01,0.09-0.02,0.14c-0.04,0.28-0.06,0.55-0.06,0.82l5.23,3.02
				c-0.01-0.31,0.02-0.64,0.07-0.96c0.01-0.05,0.02-0.1,0.03-0.15c0.05-0.31,0.12-0.62,0.21-0.92c0.01-0.02,0.02-0.05,0.03-0.07
				c0.1-0.34,0.22-0.67,0.36-1c0,0,0-0.01,0.01-0.02c0.14-0.33,0.31-0.67,0.49-0.98c0.01-0.01,0.01-0.02,0.02-0.03
				c0.18-0.31,0.38-0.61,0.59-0.9c0.02-0.02,0.04-0.04,0.06-0.07c0.19-0.27,0.4-0.52,0.62-0.75c0.04-0.04,0.09-0.09,0.13-0.14
				c0.17-0.18,0.36-0.35,0.55-0.51c0.07-0.07,0.15-0.15,0.23-0.2c0.25-0.21,0.51-0.4,0.79-0.55l84.99-49.22
				c0.27-0.15,0.52-0.27,0.78-0.36c0.05-0.02,0.1-0.04,0.14-0.05c0.24-0.08,0.47-0.13,0.69-0.15c0.02,0,0.04,0,0.06,0
				c0.23-0.02,0.46-0.01,0.67,0.03c0.01,0,0.02,0.01,0.03,0.01c0.22,0.05,0.42,0.12,0.61,0.23L391.41,81.98z"/>
		</g>
		<g>
			<g>
				<path class="st43" d="M386.64,265.94c-12.82,7.4-12.89,19.42-0.14,26.82c12.73,7.4,33.46,7.4,46.29-0.01
					c12.82-7.4,12.89-19.41,0.15-26.81C420.2,258.53,399.46,258.53,386.64,265.94z"/>
			</g>
			<g>
				<path d="M416.1,265.1c0,0,0.35,3.38,1.85,5.18c1.51,1.8,8.38,5.9,7.91,7.77c-0.47,1.87-5.35,2.1-8.45-0.96
					c-3.11-3.05-3.94-3.52-5.25-3.78c-1.31-0.27-3.19-1.88-1.87-4.77C410.29,268.54,414.44,267.31,416.1,265.1z"/>
				<path class="st44" d="M417.79,188.56c0,0,5.65,27.72,2.55,43.08c0,0-1.43,12.11-2.1,15.45c-0.68,3.33-0.57,21.45-0.57,21.45
					s-5.1,2.18-7.67-0.2c0,0-3.29-18.66,0.32-30.55c0,0-4.24-22.71-4.34-30.11c-0.1-7.4-1.02-13.76-1.02-13.76L417.79,188.56z"/>
				<path class="st45" d="M420.33,231.64c0,0-1.43,12.11-2.1,15.45c-0.68,3.33-0.57,21.45-0.57,21.45s-0.85,0.35-2.02,0.62
					c-0.37-5.4-1.05-14.81-1.34-16.94c-0.42-3.03,3-19.61,3.27-25.77c0.27-6.16-6.55-29.26-6.55-29.26l1.89-6.59l4.87-2.03
					C417.79,188.56,423.44,216.27,420.33,231.64z"/>
			</g>
			<path class="st46" d="M378.36,190.41c0,0-6.47,0.06-10.21-1.94c-3.74-2-3.86-4-3.8-4.6c0.06-0.6,5.93,1.6,6.6,1.14
				c0.67-0.46-0.54-2.73-0.74-3.2c-0.2-0.47,2.13-0.2,3.26,1.2c1.13,1.4,5.36,4.61,5.36,4.61S380.3,189.81,378.36,190.41z"/>
			
				<rect x="399.63" y="147.17" transform="matrix(0.9967 -0.0806 0.0806 0.9967 -10.9442 32.9991)" class="st47" width="7.11" height="9.73"/>
			<path d="M400.62,272.02c0,0,0.26,3.39,1.72,5.22c1.45,1.84,8.21,6.11,7.7,7.97c-0.52,1.86-5.39,1.96-8.42-1.18
				c-3.03-3.14-3.85-3.62-5.15-3.92c-1.3-0.3-3.14-1.96-1.74-4.81C394.73,275.3,398.91,274.18,400.62,272.02z"/>
			<path class="st45" d="M394.74,197.67c0,0-5.46,7.81-2.83,23.79l1.18,19.07c0,0-3.63,6.11-1.03,24.64l2.49,11.14
				c0,0,3.09,2.26,6.5-2.35c0,0-0.25-27.42,1.04-31.64c0.94-3.09,5.23-15.97,6.92-28.42c0.62-4.54,7.63-12.06,7.27-15.98
				L394.74,197.67z"/>
			<path class="st44" d="M394.56,276.31l-2.49-11.14c-2.6-18.54,1.03-24.64,1.03-24.64l-1.18-19.07
				c-2.64-15.97,2.83-23.79,2.83-23.79l0.63,0.01l5.98,3.87c0,0-5.93,30.2-5.49,37.87c0.43,7.67-1.74,16.63-1.45,21.41
				c0.18,3.07,1.56,10.84,2.51,16.01C395.51,277,394.56,276.31,394.56,276.31z"/>
			<g>
				<path class="st48" d="M427.38,199.94c0,0,1.16-2.72,4.75-2.76C432.13,197.19,431.23,200.57,427.38,199.94z"/>
				<g>
					<path class="st49" d="M430.86,195.78c0,0,2.98,3.8,3.26,4.81c0.28,1,1.53,5.24-0.56,8.15c-1.13,1.57-1.77-0.62-2.09-3.47
						c-0.14-1.29,0.03-2.27-1.68-3.65c-1.23-0.99-2.63-3.01-3.16-4.07C426.11,196.52,430.86,195.78,430.86,195.78z"/>
					<path class="st50" d="M426.7,197.79c0.52,1.05,2.04,2.87,2.29,4.44c0.3,1.88,2.34,1.76,2.48,3.05
						c0.25,2.22,0.75,4.06,1.44,4.01c-0.31-1.67,1.64-2.95-0.48-6.82c-0.77-1.41-3.32-4.34-4.76-5.53
						C426.82,197.34,426.5,197.38,426.7,197.79z"/>
					<path class="st49" d="M427.88,196.9c0,0,0.64,5.41,1.07,7.02c0.44,1.61,1.42,2.55,1.61,2.19c0.2-0.36-0.82-5.19,0.93-5.07
						C432.43,201.1,428.15,197.66,427.88,196.9z"/>
				</g>
				<path class="st51" d="M414.76,153.26c0,0,5.43-1.26,7.69,9.54c2.26,10.79,2.26,15,3.85,18.7c1.59,3.7,5.83,15.69,5.83,15.69
					s-3.44,0.18-4.75,2.76c0,0-8.91-14.82-10.67-21.34C414.96,172.08,409.11,156.25,414.76,153.26z"/>
				<path class="st52" d="M426.3,181.49c-1.59-3.7-1.59-7.91-3.85-18.7c-1.22-5.87-3.39-8.17-5.11-9.05
					c-5.13,3.39,0.53,18.75,2.25,25.15c1.32,4.88,6.47,14.85,9.01,19.6c1.82-1.34,3.54-1.3,3.54-1.3S427.89,185.19,426.3,181.49z"/>
			</g>
			<path class="st52" d="M391.09,164.23c0,0,4.84-9.12,24.66-11.38c0,0,3.14-1.31,2.84,8.88c-0.04,1.47,1.48,3.98,2.52,5.31
				c1.04,1.33,3.77,6.43-2.23,12.55c0,0-2.32,9.08,0.46,14.96c2.47,5.24-10.48,10.37-21.51,9.3c-1.36-0.13-5.11-1.44-3.92-6.17
				c1.19-4.73,4.73-12.59,2.52-21.32C394.19,167.63,389.61,168.67,391.09,164.23z"/>
			<path class="st51" d="M391.09,163.91c-1.48,4.43,3.1,3.4,5.32,12.12c2.22,8.72-1.33,16.91-2.52,21.64
				c-1.19,4.73,1.71,5.86,3.07,5.99c1.82,0.17,4.01,0.4,5.86,0.26c-3.87-8.46,1.63-24.19,1.87-32.67c0.26-8.99-7.87-12.5-7.88-12.5
				C392.51,161.47,391.09,163.91,391.09,163.91z"/>
			<path class="st53" d="M419.33,194.54c-2.78-5.88-0.46-14.96-0.46-14.96c6.01-6.11,3.27-11.21,2.23-12.55
				c-1.04-1.33-2.56-3.84-2.52-5.31c0.12-4.01-0.3-6.24-0.84-7.46c-1.15,1.33-3.44,0.85-2.67,5.53c0.45,2.78-0.48,6.91-4.78,6.93
				c-4.31,0.01-1.88,6.93-1.63,8.86c1.75,13.38-5.38,19.63-3.08,28.08C414.03,202.53,421.23,198.57,419.33,194.54z"/>
			<g>
				<path class="st54" d="M411.05,135.48c0,0-2.38,11.25-2.21,20.98c0.02,1.4,0.83,0.15,3.34-0.73c0,0,9.21-9.47,2.43-20.39
					c-2.15-3.46-9.28-7.99-16.51-2.05L411.05,135.48z"/>
				<g>
					<path class="st55" d="M414.21,148.62c0,0-3.18,4.39-1.21,8.67c0.54,1.18,2.04,6.08-5.67,4.63c0,0-8.16-3.37-5.99-5.92
						c1.45-1.7,2.79-4.1-0.14-12.04L414.21,148.62z"/>
					<path class="st56" d="M401.34,156c-0.23,0.27-0.33,0.55-0.33,0.82c7.32,0.88,11.88-4.58,11.88-4.58l-10-7.56l0,0
						c0,0-0.45,0.36-1.13,0.95C403.93,152.24,402.68,154.43,401.34,156z"/>
				</g>
				<path class="st46" d="M411.84,134.33c0,0,2.09,0.54,2.63,6.56c0.06,0.67,1.2,1.46,1.6,3.1c0.41,1.66,1.3,8.34-2.53,9.35
					c-2.78,0.73-9.87-0.5-12.73-7.08C397.95,139.67,403.04,130.52,411.84,134.33z"/>
				<path class="st47" d="M411.65,136.77c0,0-9.39,1.61-10.8,19.88l-6.64,4.09c-2.19-5.2-0.23-19.28-0.23-19.28
					s1.12-11.2,10.49-10.29C404.48,131.18,410.78,133.03,411.65,136.77z"/>
				<path class="st54" d="M411.65,136.77c0,0,2.98-0.81,4.89,4.64c0,0-1.74-15.67-16.24-9.73
					C400.3,131.68,409.2,131.41,411.65,136.77z"/>
				<path class="st46" d="M404.33,147.13c0,0-1.32-3.25-3.15-2.09c-0.59,0.37-1.19,1.11-0.13,2.76c1.06,1.64,3.08,3.06,4.57,2.75
					L404.33,147.13z"/>
			</g>
			<path class="st52" d="M393.64,161.74c-5.46,1.2-6.92,18.73-8.25,26.07c-4.22-1.41-8.42-1.81-8.42-1.81
				c1.07,2.4-1.47,4.61-1.47,4.61s6,4.06,11.2,5.94c1.48,0.53,2.58,0.4,3.42-0.05c2.67-0.58,4.96-11.67,7.39-23.55
				C400.05,160.54,393.64,161.74,393.64,161.74z"/>
			<path class="st53" d="M385.4,187.81c-4.22-1.41-8.42-1.81-8.42-1.81c0.22,0.49,0.28,0.96,0.25,1.42
				c3.03,1.66,9.51,5.35,9.58,2.43c0.07-2.86,5.18-22.24,6.74-28.08C388.16,163.18,386.71,180.52,385.4,187.81z"/>
		</g>
		<polygon class="st43" points="389.61,379.38 282.2,317.37 289.67,292.53 207.55,233.02 57.55,320.2 167.81,383.85 215.21,356.3 
			322.62,418.31 		"/>
		<g>
			<g>
				<g>
					<polygon class="st57" points="291.11,290.75 287.92,289.18 288.2,292.46 					"/>
					<g>
						<polygon class="st58" points="287.45,267.37 288.04,292.57 294.79,292.81 294.79,298.38 166.72,372.74 166.82,337.47 						
							"/>
					</g>
					<g>
						<polygon class="st58" points="166.82,337.47 166.72,372.74 74.53,319.52 74.63,284.25 						"/>
					</g>
					<g>
						<polygon class="st59" points="166.72,343.59 166.66,367.66 78.14,316.52 78.67,292.81 						"/>
					</g>
					<g>
						<polygon class="st58" points="292.24,264.59 166.82,337.47 74.63,284.25 200.05,211.36 						"/>
					</g>
					<polygon class="st58" points="78.67,292.81 78.14,316.52 80.39,315.47 80.99,294.15 					"/>
					<polygon class="st58" points="166.66,367.66 78.14,316.52 80.39,315.47 166.82,363.94 					"/>
					<polygon class="st60" points="166.72,343.59 287.61,274.62 288.22,295.01 166.66,367.66 					"/>
					<polygon class="st58" points="166.66,367.66 294.79,292.81 291.11,290.75 166.66,363.84 					"/>
					<polygon class="st61" points="292.24,264.59 292.24,271.84 287.61,274.62 286.9,267.69 					"/>
					<polygon class="st62" points="166.72,343.59 166.72,343.59 288.2,292.46 287.61,274.62 					"/>
					<polygon class="st63" points="166.82,363.94 80.99,294.15 80.99,294.15 166.72,343.59 					"/>
					<g>
						<g>
							<polygon class="st64" points="246.65,274.63 241.47,277.64 176.87,240.35 182.05,237.34 							"/>
						</g>
						<g>
							<polygon class="st64" points="228.96,284.91 223.78,287.92 159.18,250.63 164.36,247.61 							"/>
						</g>
						<g>
							<polygon class="st64" points="237.51,279.95 232.32,282.96 167.72,245.67 172.9,242.65 							"/>
						</g>
						<g>
							<polygon class="st64" points="255.19,269.67 250.01,272.68 185.41,235.39 190.59,232.37 							"/>
						</g>
					</g>
				</g>
				<g>
					<polygon class="st65" points="283.21,251.35 280.32,249.93 280.57,252.89 					"/>
					<g>
						<polygon class="st66" points="279.9,230.23 280.42,253 286.53,253.21 286.53,258.24 170.82,325.43 170.91,293.56 						"/>
					</g>
					<g>
						<polygon class="st65" points="170.91,293.56 170.82,325.43 87.53,277.34 87.62,245.47 						"/>
					</g>
					<g>
						<polygon class="st59" points="170.82,299.09 170.76,320.84 90.79,274.64 91.27,253.21 						"/>
					</g>
					<g>
						<polygon class="st67" points="284.23,227.71 170.91,293.56 87.62,245.47 200.93,179.62 						"/>
					</g>
					<polygon class="st66" points="91.27,253.21 90.79,274.64 92.83,273.69 93.36,254.42 					"/>
					<polygon class="st66" points="170.76,320.84 90.79,274.64 92.83,273.69 170.91,317.47 					"/>
					<polygon class="st60" points="170.82,299.09 280.04,236.77 280.6,255.2 170.76,320.84 					"/>
					<polygon class="st65" points="170.76,320.84 286.53,253.21 283.21,251.35 170.76,317.39 					"/>
					<polygon class="st66" points="284.23,227.71 284.23,234.26 280.04,236.77 279.4,230.52 					"/>
					<polygon class="st62" points="170.82,299.09 170.82,299.09 280.57,252.89 280.04,236.77 					"/>
					<polygon class="st63" points="170.91,317.47 93.36,254.42 93.36,254.42 170.82,299.09 					"/>
					<g>
						<g>
							<polygon class="st66" points="243.03,236.79 238.35,239.51 179.99,205.81 184.67,203.09 							"/>
						</g>
						<g>
							<polygon class="st66" points="227.05,246.07 222.37,248.79 164.01,215.1 168.69,212.38 							"/>
						</g>
						<g>
							<polygon class="st66" points="234.77,241.59 230.08,244.31 171.72,210.62 176.41,207.89 							"/>
						</g>
						<g>
							<polygon class="st66" points="250.75,232.3 246.07,235.02 187.7,201.33 192.39,198.61 							"/>
						</g>
					</g>
				</g>
				<g>
					<polygon class="st68" points="236.6,226.68 233.46,224.68 233.46,228.51 					"/>
					<g>
						<g class="st1">
							<g>
								<polygon class="st69" points="239,201.65 239,208.78 233.59,211.74 233.47,228.5 239.03,228.21 239.03,234.14 
									166.36,276.35 166.46,243.76 								"/>
							</g>
							<g>
								<polygon class="st68" points="166.46,243.76 166.36,276.35 104.47,240.62 104.57,208.04 								"/>
							</g>
							<g>
								<polygon class="st70" points="239,201.65 166.46,243.76 104.57,208.04 176.5,166.25 								"/>
							</g>
						</g>
					</g>
					<polygon class="st59" points="108.84,217.72 166.44,250.2 166.36,270.79 108.84,237.7 					"/>
					<polygon class="st63" points="108.84,217.72 166.44,250.2 166.36,270.79 108.84,217.72 					"/>
					<polygon class="st60" points="166.36,270.79 233.46,231.46 233.59,211.74 166.44,250.2 					"/>
					<polygon class="st62" points="166.44,250.2 233.46,231.46 233.59,211.74 166.44,250.2 					"/>
					<polygon class="st69" points="108.84,217.72 108.84,237.7 111.87,236.4 111.87,219.43 					"/>
					<polygon class="st69" points="111.87,236.4 166.36,267.58 166.36,270.79 108.84,237.7 					"/>
					<polygon class="st68" points="166.36,270.79 239.03,228.21 236.6,226.68 166.36,267.58 					"/>
				</g>
			</g>
			<path class="st71" d="M156.57,152.09c0,0,4.91,0.6,4.71,6.17c-0.2,5.57-5.35,29.62-11.25,34.4c-5.91,4.78-5.78-6.59-5.78-6.59
				S147.88,150.87,156.57,152.09z"/>
			<g>
				<path class="st72" d="M131.58,261.25c0,0,1.25,4.39-1.84,5.49c-3.09,1.1-5.62,2.43-6.82,3.37c-1.19,0.94-14.48,6.58-16.11,3.91
					c-1.64-2.68,2.33-5.7,3.33-6.63c1-0.93,10.07-8.76,10.07-8.76L131.58,261.25z"/>
				<path class="st72" d="M142.32,268.9c0,0,1.25,4.39-1.84,5.5c-3.09,1.1-5.62,2.41-6.81,3.36c-1.19,0.94-14.47,6.59-16.11,3.92
					c-1.63-2.67,2.33-5.69,3.32-6.63c1-0.93,10.07-8.76,10.07-8.76L142.32,268.9z"/>
				<path class="st73" d="M153.82,197.81c0,0-32.58,20.48-33.52,25.69c-0.93,5.21-0.74,35.89-0.74,35.89s8.35,3.6,12.38,1.35
					l3.38-28.92c0,0,25.63-18.91,26.76-19.62C163.2,211.5,153.82,197.81,153.82,197.81z"/>
				<path class="st74" d="M162.07,212.21c-1.13,0.71-26.76,19.62-26.76,19.62l-3.38,28.92c-1.95,1.08-4.89,0.8-7.42,0.22
					c1.15-8.78,3.73-28.11,4.66-33.01c1.21-6.4,27.5-21.53,27.5-21.53l5.36,5.02C162.17,211.85,162.2,212.13,162.07,212.21z"/>
				<path class="st71" d="M153.78,198.58c0,0,3.77,11.18,5.72,13.62c0,0-26.04,13.78-27.37,20.44c-1.33,6.66-2.96,35.17-2.96,35.17
					s5.82,3.8,13.67,1.01c0,0,2.91-21.9,3.21-30.71c0,0,39.37-10.42,36.46-31.98C182.51,206.15,167.44,212.14,153.78,198.58z"/>
				<path class="st73" d="M146.05,238.12c-0.3,8.81-3.21,30.71-3.21,30.71c-1.36,0.48-2.64,0.75-3.85,0.9
					c0.23-3.42,0.5-7.92,0.85-13.85c1.3-22.08,4.7-21.66,4.7-21.66c24.98-11.27,30.03-22.04,30.03-22.04l8.02-4.94
					C184.05,228.05,146.05,238.12,146.05,238.12z"/>
			</g>
			<path class="st75" d="M170.59,154c0,0,12.43,6.34,12.74,7.29c0.31,0.96,3.54,3.26-1.08,14.18c0,0-6.17,11.86-3.07,23.71
				c1.8,6.87,2.74,9.88,2.74,9.88s-4.86,8.76-20.36,3.06c-3.13-1.15-8.39-5.42-9.98-8.85c0,0,1.45-10.14-0.49-21.98
				c-1.94-11.84-3.04-27.21,3.69-29.25C154.78,152.04,156.49,149.98,170.59,154z"/>
			<path class="st76" d="M149.47,204.53c0,0,3.7-8.06,1.22-22.56c-2.19-12.77-2.63-27.89,4.09-29.93c0,0,0.73-0.88,5.14-0.37
				l0.71,0.45c0,0-9.35,10.26-5.45,27.71c2.29,10.22,3.72,17.37,3.09,29.94C158.1,213.03,150.55,206.86,149.47,204.53z"/>
			<path class="st77" d="M164.07,212.53c-9.08-21.21-3.61-32.58-1.37-37.26c2.24-4.68,3.27-14.31,3.27-14.31l7.33-1.76l4.87,6.9
				C178.17,166.1,166.38,217.94,164.07,212.53z"/>
			<path class="st71" d="M183.33,161.29c0.31,0.96,3.54,3.26-1.08,14.18c0,0-5.18,11.77-2.48,23.6c1.16,5.08,0.81,2.76,2.74,7.07
				c1.15,2.57-2.64,8.51-7.26,9.79c-5.8,1.6-10.25,0-11.19-3.41c-3.96-14.51-4.02-24.29-0.9-31.89c4.55-11.1,8.29-25.59,8.29-25.59
				l-1.34-1.19c0.15,0.05,0.31,0.09,0.47,0.13C170.59,154,183.02,160.33,183.33,161.29z"/>
			<path class="st73" d="M174.54,156.23l0.81,2.47c0,0-6.9,15.4-12.58,24.9c-4.98,8.33,1.9,29.52,1.9,29.52
				c-1.59-26.53,5.54-36.05,8.62-40.98C181.99,158.19,174.54,156.23,174.54,156.23L174.54,156.23z"/>
			<path class="st78" d="M175.26,164.71c-0.8,1.78-1.44,3.71-2.7,5.83c-0.44,0.75-2.22,4.09-2.63,4.84
				c-10.42,18.69-7.07,17.99-5.25,38.49c0,0-3.86-8.05-4.31-22.06c-0.1-3.48,0.64-7.77,2.18-11.29c6.43-14.6,8.92-25.46,8.92-25.46
				l-0.27-0.24c0.14-0.25,0.22-0.39,0.22-0.39c0.63,0.32,1.56,0.81,2.63,1.37C175.8,157.2,177.43,159.88,175.26,164.71z"/>
			<path class="st73" d="M154.91,180.33c1.22,3.79,1.84,6.69,2.51,9.4c-0.09,4.06,0.45,9.96,0.41,13.1
				c-1-7.54-4.89-14.84-7.02-25.78c-3.68-18.88,5.02-23.78,5.02-23.78l0.51,7.94C154.93,166.17,152.37,172.42,154.91,180.33z"/>
			<path class="st78" d="M155.77,180.79c0.96,3.69,2.22,12.46,2.33,14.6c0.62,8.74,0.23,16.48,0.17,14.39
				c-0.66-21.14-5.97-23.43-7.38-37.7c-0.1-1-0.75-6.02,0.79-10.66c2.18-6.58,5.07-9.55,6.1-9.89c0.11,0,0.24,0.01,0.36,0.01
				l2.61,1.99C158.77,156.51,152.03,166.35,155.77,180.79z"/>
			<path class="st79" d="M166.22,150.2c0,0-9.03,4.75-5.01,11.56l-4.25,2.34C156.97,164.1,152.8,152.18,166.22,150.2z"/>
			<path class="st49" d="M172.02,145.4c0,0-3.8,5.77-0.79,9.67c1.68,2.18-2.28,7.34-9.05,6.93c0,0-3.02-0.74-2.72-1.83
				c0.7-2.49-0.3-3.89-1.38-5.81C157.02,152.45,172.02,145.4,172.02,145.4z"/>
			<path class="st80" d="M171.23,155.07c0.2,0.26,0.32,0.56,0.36,0.89c-2.54-2.58-7.41-2.77-7.41-2.77l6.43-7.11
				c0.25-0.12,0.46-0.22,0.65-0.31l0.2,0.63C170.53,148.22,168.99,152.16,171.23,155.07z"/>
			<path class="st81" d="M159.47,160.16c0.64-3.95-0.3-3.89-1.38-5.81c-0.29-0.52,0.63-1.43,2.11-2.47c0.37,0.27,0.73,0.68,1.1,1.24
				c2.62,4.04,2.61,7.2,2.29,8.88c-0.46,0.02-0.93,0.07-1.41-0.01C161.38,161.87,159.28,161.38,159.47,160.16z"/>
			<g>
				<path class="st49" d="M173.43,142.16c0,0-1.65,7.64-6.9,11.1c-4.66,3.08-10.08,5.09-11.08-0.47
					c-0.79-4.42-2.96-15.67,0.94-17.93c5.03-2.91,6.87-6.5,12.69-4.36C169.08,130.51,175.73,133.57,173.43,142.16z"/>
				<path class="st50" d="M173.43,142.16c0,0-0.6,6.56-6.88,11.21c-1.34,1-3.07,1.79-4.41,2.34c2.45-1.8,2.7-2.36,4.6-4.57
					c1.9-2.21-2.82-1.36,0.4-7c1.1-1.93-4.29,0.55-5.49,0.52c-7.17-0.18-6.63-4.28-6.77-6.02c0.14-0.76,0.34-1.48,0.59-2.12
					l0.68-1.3c0.08-0.12,0.16-0.24,0.25-0.35c0.78-0.98,1.55-1.83,2.32-2.56c3.07,0.06,11.79,0.26,11.97,0.3
					c0.12,0.03,1.62,2.07,3.01,4C174.02,138.13,174.02,139.96,173.43,142.16z"/>
				<path class="st82" d="M170.28,149.56c0,0,5.8-5.33,3.79-12.97c0,0-1.08-6.15-7.91-6.96c-3.26-0.39-9.53-0.19-12.02,6.4
					c-0.78,2.05-0.25,6.56,7.82,4.45c1.15-0.3,4.22-0.7,5.3,0.28c1.09,0.98,1.2,2.82,0.68,4.38c-0.46,1.37,0.75,1.51,0.92,1.22
					c0.16-0.29,1.71-4.2,3.17-2.67C173.36,145.07,170.43,149.3,170.28,149.56z"/>
				<path class="st83" d="M170.28,149.56c0.14-0.27,3.08-4.49,1.76-5.87c-1.46-1.53-3.01,2.38-3.17,2.67
					c-0.17,0.29-1.38,0.15-0.92-1.22c0.52-1.56,0.41-3.39-0.68-4.38c-0.98-0.89-3.67-0.44-5.3-0.28c1.34-0.85,4-1.15,4.96-3.38
					c1.27-2.98,3.06-4.38,4.75-4.9c1.97,2,2.4,4.4,2.4,4.4C176.08,144.23,170.28,149.56,170.28,149.56z"/>
			</g>
			<path class="st79" d="M170.3,153.2c0,0-1.36,6.82-9.08,8.57l2.21,5.38C163.42,167.14,177.25,160.21,170.3,153.2z"/>
			<path class="st73" d="M183.33,161.29c0.31,0.96,3.54,3.26-1.08,14.18c0,0-5.18,11.77-2.48,23.6c1.16,5.08,0.81,2.76,2.74,7.07
				c1.11,2.48-2.38,8.29-6.8,9.66c-2.65-6.28-3.48-8.05-4.58-14.93c-1.5-9.41-0.44-17.15,7.27-26.6c6.77-8.3,3.92-11.54,4.08-13.73
				C182.97,160.89,183.28,161.15,183.33,161.29z"/>
			<path class="st82" d="M154.15,136.02c0,0-1.19,7.35,8.17,4.69c0,0,4.68-1.25,6.56-5.59c0.4-0.92,1.48-2.46,3.07-2.62
				c0,0-2.49-3.54-8.94-3.08c-3.04,0.21-6.18,3.16-6.96,3.64C155.28,133.54,156.53,136.62,154.15,136.02z"/>
			<path class="st49" d="M123.22,190.46c0,0-6.75,1.27-11.35-0.65c-4.61-1.91-3.5-2.07-3.14-2.77c0.77-1.52,6.85-1.09,7.97-1.39
				c1.12-0.29-0.93-1.19-1.39-1.96c-0.46-0.77-1.53-1.68-1.16-1.93c0.36-0.25,1.31-0.51,3.01,0.85c1.71,1.36,6.03,3.21,6.03,3.21
				L123.22,190.46z"/>
			<path class="st71" d="M122.25,185.18c0,0,0.37,1.28,0.35,3c-0.02,2.07-0.97,3.46-0.97,3.46s22.01,4.42,27.61,1.58
				c0,0,5.41-8.33-2.86-10.56L122.25,185.18z"/>
			<g>
				<g class="st1">
					<g>
						<polygon class="st84" points="165.57,218.58 165.49,219.85 145.18,230.16 145.25,228.88 						"/>
					</g>
					<g>
						<polygon class="st85" points="145.25,228.88 145.18,230.16 113.3,209.25 113.38,207.97 						"/>
					</g>
					<g>
						<polygon class="st86" points="165.57,218.58 145.25,228.88 113.38,207.97 133.69,197.67 						"/>
					</g>
				</g>
			</g>
			<path class="st49" d="M154.97,210.12c0,0-7.44,6.15-14.73,4.71c0,0,0.01-1.9,3.24-2.6c3.24-0.71,4.47-3.18,4.45-3.56
				c-0.02-0.38-2.56-0.6-3.7-0.65c-1.14-0.05-2.5-1.61,0.26-1.78c2.77-0.17,7.5-1.23,10.19-0.64
				C154.69,205.6,157.37,208.46,154.97,210.12z"/>
			<path class="st71" d="M180.24,161.36c0,0,4.86-0.9,6.34,4.48c1.48,5.37,3.77,29.86-0.44,36.19c-4.21,6.33-31.64,9.65-31.64,9.65
				c1.97-4.17-0.83-7.61-0.83-7.61l23.69-9.91C177.37,194.16,171.57,162.8,180.24,161.36z"/>
			<g>
				<g class="st1">
					<g>
						<polygon class="st87" points="143.03,206.34 144.58,205.27 146.84,229.05 145.3,230.11 						"/>
					</g>
					<g>
						<polygon class="st88" points="109.71,184.48 111.27,183.42 144.58,205.27 143.03,206.34 						"/>
					</g>
					<g>
						<polygon class="st88" points="143.03,206.34 145.3,230.11 111.98,208.25 109.71,184.48 						"/>
					</g>
					<g>
						<polygon class="st89" points="143.03,206.34 143.03,206.34 111.98,208.25 109.71,184.48 						"/>
					</g>
				</g>
			</g>
		</g>
		<g>
			<g>
				<path class="st70" d="M277.24,285.19c0,0-16.84-1.74-24.39,16.84c-7.55,18.58-20.03,40.07-9,60.39
					c11.03,20.32,56.33,31.93,81.3,7.84c0,0,25.84-26.71-1.45-56.33C323.7,313.93,296.11,282.57,277.24,285.19z"/>
				<path class="st90" d="M277.24,285.19c18.87-2.62,46.46,28.74,46.46,28.74c13.84,15.03,14,29.29,10.82,39.71
					c-6.59,7.14-17.63,7.68-28.53,13.14c-15.68,7.84-26.13-4.07-38.91-12.49c-12.77-8.42-13.94-20.91-11.03-28.74
					c2.9-7.84,4.06-19.16,1.74-23.52c-1.09-2.05,0.91-6.93,3.33-11.53C268.75,284.35,277.24,285.19,277.24,285.19z"/>
			</g>
			<g>
				<path class="st91" d="M330.95,388.45c-0.31-2.96-0.5-6.04-0.62-9.18l-8.98,1.08c0.83,1.86,1.66,3.7,2.38,5.44
					c1,4.49-2.2,6.25,0.7,10.64c0.53,0.85,1.97,1.46,2.41,1.57c2.08,0.39,2.92,1.64,3.71,2.82c0.52,0.79,1.04,1.54,1.85,2.09
					c2.99,1.96,9.07,0.83,10.07-1.41c1.45-3.15-7.92-7.91-11.29-12.74C331.11,388.69,331.04,388.57,330.95,388.45z"/>
				<path class="st91" d="M352.13,364.54c0.54-0.44,0.45-1.05,1.2-1.9c0.72,1.01,2.61,1.85,3.35,2.81c0.15,0.06,0.29,0.13,0.39,0.17
					c5.71,2.49,16.8,1.59,17.24,5.23c0.33,2.58-4.52,6.96-8.31,6.85c-1.04-0.05-1.93-0.44-2.83-0.86c-1.37-0.62-2.81-1.28-4.91-0.5
					c-0.46,0.15-2.09,0.4-3.05-0.08c-4.94-2.32-3.2-5.59-6.32-9C350.01,366.33,351.1,365.37,352.13,364.54z"/>
				<g>
					<path class="st92" d="M326.41,353.24c0,0-0.01-8.42-5.63-16.05c-4.44-6.03-19.73-9.83-19.87-9.81
						c-0.16,0.02-11.63,7.46-10.37,9.4c0.7,1.1,22.32,16.98,22.83,17.8c0.88,1.43,1.17,2.28,1.08,4.05
						c-0.37,6.9,4.12,26.25,7.48,31.56c2.47,3.9,9.19,2.11,10.08-0.37C332.16,389.39,327.24,357.73,326.41,353.24
						C326.4,353.23,327.24,357.73,326.41,353.24z"/>
					<path class="st93" d="M327.62,353.41c-0.02-0.12-0.04-0.22-0.06-0.31C328.25,356.85,327.79,354.34,327.62,353.41z"/>
					<path class="st93" d="M327.62,353.41c-0.04-0.19-0.06-0.31-0.06-0.31C327.58,353.19,327.6,353.3,327.62,353.41z"/>
					<path class="st93" d="M299.36,327.13c0.14-0.02,16.98,4.02,21.42,10.05c5.62,7.63,4.55,14.09,4.55,14.09s-2.29-2.13,0,0
						c1.04,0.97,1.9,6.74,2.52,10.39c-5.06-2.9-6.86-13.99-12.68-9.14c-1.11,0.53,3.3,24.08,6.71,33c0.67,1.74,2.38,5.12,3.48,6.56
						c-1.04,0.05-2.11-0.13-3.43-1.88c-2.07-4.57-7.7-20.13-7.48-31.56c0.03-1.77-0.2-2.62-1.08-4.05
						c-0.51-0.82-22.13-16.7-22.83-17.8C289.28,334.83,299.21,327.15,299.36,327.13z"/>
					<path class="st94" d="M297.08,353.22c12.14-2.75,22.66-6.29,22.66-6.29c6.22,13.23,27.86,22.43,30.51,23.86
						c1.38-0.4,4.42-4.74,5.27-6.61c-4.71-5.61-25.93-27.19-32.22-30.17c-3.94-1.86-35.17,2.01-35.41,0.48
						c-0.09-0.62-7.65-0.33-8.18-0.25C273.53,335.14,275.61,358.08,297.08,353.22z"/>
					<path class="st95" d="M279.71,334.25c0.53-0.08,8.09-0.37,8.18,0.25c0.1,0.62,5.39,0.05,11.92-0.71
						c-0.25,0.69-0.59,1.37-1.04,2.06c-3.61,5.49-14.7,2.7-17.53,8.6c-1.82,3.81,3.35,5.94,5.75,6.42
						c11.09,1.76,25.6-0.38,32.76-8.63c5.71,13.43,19.28,21.29,32.33,27.31c-0.77,0.65-1.43,1.12-1.83,1.24
						c-2.65-1.43-24.29-10.63-30.52-23.86c0,0-10.51,3.54-22.66,6.29C275.61,358.08,273.53,335.14,279.71,334.25z"/>
				</g>
			</g>
			<g>
				<g class="st1">
					<g>
						<polygon class="st84" points="295.77,338.01 295.84,339.08 312.72,347.64 312.65,346.58 						"/>
					</g>
					<g>
						<polygon class="st85" points="312.65,346.58 312.72,347.64 339.2,330.26 339.14,329.2 						"/>
					</g>
					<g>
						<polygon class="st86" points="295.77,338.01 312.65,346.58 339.14,329.2 322.26,320.64 						"/>
					</g>
				</g>
			</g>
			<g>
				<g>
					<path class="st49" d="M320.43,310.4c0,0,4.07-2.17,6.45-1.26c2.39,0.92,4.01,0.93,5.37,2.27c1.36,1.33,0.68,2.51-0.78,2.92
						c-1.45,0.41-4.07,0.43-6.7-0.18c-2.63-0.6-2.86-0.17-3.61-0.06C320.41,314.21,318.82,312.44,320.43,310.4z"/>
				</g>
				<g>
					<path class="st96" d="M290.35,283.47c2.02-0.95,5.8-0.9,7.56,4.72c1.76,5.62,6.51,21.41,6.51,21.41s15.89-0.59,17.73-0.37
						c0,0-2.51,2.3-0.74,5.09c0,0-16.58,5.97-20.94,2.98C296.11,314.31,282.09,287.34,290.35,283.47z"/>
				</g>
				<g>
					<path class="st96" d="M269.17,298.07c0,0,4.15-9.71,24.63-15.21c0,0,3.16-1.79,4.15,9.03c0.14,1.56,2.08,4.03,3.34,5.3
						c1.26,1.28,4.81,6.33-0.75,13.56c0,0-1.29,9.91,2.4,15.77c3.29,5.24-9.76,12.32-21.57,12.6c-1.46,0.04-4.75-0.52-4.11-5.67
						c0.65-5.16,2.56-14.29-0.91-23.22C272.89,301.27,268.18,302.95,269.17,298.07z"/>
				</g>
				<g>
					<path class="st97" d="M269.17,298.07c-0.99,4.88,3.72,3.2,7.19,12.15c3.47,8.94,1.55,18.06,0.91,23.22
						c-0.64,5.15,2.65,5.71,4.11,5.67c1.95-0.04,3.93-0.28,5.87-0.66c-5.17-8.46-1.9-25.35-2.73-34.35
						c-0.88-9.54-9.94-12.21-9.94-12.21C270.36,295.3,269.17,298.07,269.17,298.07z"/>
				</g>
				<g>
					<path class="st98" d="M302.94,326.52c-3.69-5.86-2.4-15.77-2.4-15.77c5.56-7.23,2.01-12.28,0.75-13.56
						c-1.26-1.27-3.2-3.73-3.34-5.3c-0.39-4.26-1.12-6.56-1.85-7.79c-1.04,1.55-3.53,1.33-2.11,6.2c0.84,2.88,0.38,7.38-4.17,7.94
						c-4.56,0.56-1.1,7.58-0.59,9.58c3.56,13.93-3.18,21.46,0.35,30.11C298.36,335.65,305.47,330.54,302.94,326.52z"/>
				</g>
				<g>
					<g>
						<path class="st54" d="M288.05,266.58c0,0-0.06,10.95,0.54,21.29c0.09,1.49,1.99,3.9,4.63,2.86c0,0,6.32-13.12-1.38-24.45
							c-2.44-3.59-10.22-8.11-17.67-1.48L288.05,266.58z"/>
					</g>
					<g>
						<g>
							<path class="st55" d="M291.97,280.44c0,0-3.2,4.81-0.91,9.29c0.62,1.23,2.43,6.38-5.84,5.17c0,0-8.83-3.23-6.63-6.05
								c1.47-1.87,2.8-4.48-0.66-12.81L291.97,280.44z"/>
						</g>
						<g>
							<path class="st56" d="M278.58,288.85c-0.23,0.3-0.33,0.6-0.32,0.89c7.84,0.63,12.47-5.38,12.47-5.38l-10.97-7.63l0,0
								c0,0-0.46,0.39-1.15,1.05C281.18,284.75,279.95,287.12,278.58,288.85z"/>
						</g>
					</g>
					<g>
						<path class="st46" d="M288.84,265.33c0,0,2.25,0.49,3.07,6.88c0.09,0.71,1.33,1.51,1.84,3.23c0.5,1.75,1.74,8.82-2.31,10.06
							c-2.92,0.89-10.53-0.12-13.85-7C274.28,271.61,279.31,261.64,288.84,265.33z"/>
					</g>
					<g>
						<path class="st47" d="M288.74,267.94c0,0-17.53,8.91-0.94,30.89c0,0-9.46,2.07-14.7-5.66c-2.52-3.71-2.67-11.8-2.97-19.49
							c0,0,0.71-11.98,10.73-11.4C280.86,262.28,287.66,264,288.74,267.94z"/>
					</g>
					<g>
						<path class="st54" d="M288.74,267.94c0,0,3.13-0.99,5.41,4.72c0,0-2.51-16.61-17.71-9.68
							C276.44,262.99,285.9,262.32,288.74,267.94z"/>
					</g>
					<g>
						<path class="st46" d="M281.39,279.28c0,0-1.54-3.41-3.46-2.08c-0.6,0.42-1.21,1.24-0.02,2.94c1.19,1.71,3.41,3.13,4.98,2.73
							L281.39,279.28z"/>
					</g>
				</g>
				<g>
					<path class="st49" d="M300.26,324.57c0,0,4.6-0.41,6.44,1.36c1.84,1.77,4.26,3.54,5,5.3c0.72,1.75,0.44,2.45-1.06,2.26
						c-1.5-0.19-5.65-2.19-7.83-3.77c-2.19-1.59-2.57-1.28-3.31-1.47C298.76,328.07,297.98,325.82,300.26,324.57z"/>
				</g>
				<g>
					<path class="st56" d="M299.5,328.26c0.74,0.19,1.12-0.12,3.31,1.47c2.18,1.58,6.33,3.58,7.83,3.77
						c0.21,0.03,0.4,0.03,0.56,0.03c-1.28-1.07-3.49-2.88-5.43-4.41c-2.44-1.93-5.91-2.35-7.01-2.44
						C298.71,327.48,299.1,328.16,299.5,328.26z"/>
				</g>
				<g>
					<path class="st96" d="M271.3,295.81c2.09-0.77,5.86-0.41,7.14,5.34c1.29,5.75,4.72,21.87,4.72,21.87s15.89,0.73,17.7,1.1
						c0,0-2.76,1.52-1.23,4.43c0,0-16.95,5.16-21.04,1.81C274.49,327.02,262.74,299,271.3,295.81z"/>
				</g>
				<g>
					<path class="st98" d="M300.86,324.12c-1.81-0.37-17.7-1.1-17.7-1.1s-3.43-16.12-4.72-21.87c-1.29-5.75-5.06-6.11-7.14-5.34
						c-0.55,0.21-1.02,0.53-1.41,0.93l-0.1,0.25c0,0,5.54,1.66,7.58,12.21c2.04,10.56-1.21,17.37,7.81,17.2
						c5.37-0.09,10.67-0.19,14.11-0.25C299.65,324.82,300.86,324.12,300.86,324.12z"/>
				</g>
			</g>
			<g>
				<g class="st1">
					<g>
						<polygon class="st87" points="314.5,327.84 313.21,326.96 311.33,346.72 312.62,347.59 						"/>
					</g>
					<g>
						<polygon class="st99" points="342.19,309.68 340.9,308.8 313.21,326.96 314.5,327.84 						"/>
					</g>
					<g>
						<polygon class="st100" points="314.5,327.84 312.62,347.59 340.31,329.43 342.19,309.68 						"/>
					</g>
					<g>
						<polygon class="st101" points="314.5,327.84 314.5,327.84 340.31,329.43 342.19,309.68 						"/>
					</g>
				</g>
			</g>
		</g>
	</g>
</g>
</svg>
