<?xml version="1.0" encoding="utf-8"?>
<!-- Generator: Adobe Illustrator 23.1.0, SVG Export Plug-In . SVG Version: 6.00 Build 0)  -->
<svg version="1.1" id="Layer_1" xmlns="http://www.w3.org/2000/svg" xmlns:xlink="http://www.w3.org/1999/xlink" x="0px" y="0px"
	 viewBox="0 0 841.89 595.28" style="enable-background:new 0 0 841.89 595.28;" xml:space="preserve">
<style type="text/css">
	.st0{fill:#00A089;}
	.st1{fill:#F89522;}
</style>
<g>
	<path class="st0" d="M264.51,246.1c-3.05,0-5.46-1.03-7.24-3.1c-1.78-2.08-2.67-5.01-2.67-8.79c0-3.79,0.85-6.74,2.57-8.86
		c1.7-2.11,4.2-3.18,7.47-3.18h56.94v-17.17h-56.94c-3.93,0-7.42,0.69-10.47,2.09c-3.05,1.4-5.62,3.31-7.69,5.75
		c-2.07,2.44-3.63,5.35-4.69,8.73c-1.05,3.38-1.58,7.06-1.58,11.02c0,4.06,0.56,7.8,1.69,11.23c1.13,3.44,2.73,6.38,4.8,8.86
		c2.07,2.49,4.62,4.43,7.64,5.82c3.01,1.4,6.38,2.09,10.09,2.09h21.99V246.1H264.51z"/>
	<path class="st1" d="M324.27,253.14c-4.14-4.69-10.27-7.04-18.41-7.04H291.5v14.48h14.44c3.71,0,6.56,1.04,8.56,3.12
		c2,2.07,3,5.27,3,9.6c0,3.87-1,6.99-3,9.33c-2,2.35-4.85,3.51-8.56,3.51h-59.44v17.18h59.44c4.15,0,7.76-0.72,10.84-2.17
		c3.08-1.44,5.63-3.44,7.65-6.01c2.02-2.58,3.53-5.62,4.54-9.14c1.01-3.51,1.52-7.34,1.52-11.49
		C330.48,264.95,328.41,257.83,324.27,253.14z"/>
	<path class="st0" d="M352.68,251.32V213.6h-17.35v-7.98h42.68v7.98h-17.35v37.72H352.68z"/>
	<path class="st0" d="M425.72,251.32l-11.57-12.7h-17.1v-7.04h19.05c2.89,0,5.07-0.78,6.54-2.33c1.47-1.55,2.2-3.84,2.2-6.85
		c0-3.02-0.76-5.24-2.29-6.67c-1.53-1.42-3.67-2.14-6.43-2.14h-24.85v37.72h-7.98v-45.7h32.82c2.6,0,4.92,0.38,6.98,1.16
		c2.05,0.78,3.79,1.89,5.22,3.33c1.42,1.45,2.51,3.2,3.27,5.25c0.75,2.06,1.13,4.36,1.13,6.92c0,3.81-0.82,7.01-2.45,9.59
		c-1.63,2.58-3.96,4.43-6.98,5.56l13.77,13.89H425.72z"/>
	<path class="st0" d="M441.19,251.32v-45.7h40.86v7.98h-32.88v29.73h32.94v7.99H441.19z M454.95,231.45v-6.73h25.34v6.73H454.95z"/>
	<path class="st0" d="M536.55,251.32l-6.85-11.51h-21.62l3.77-6.47h14.02l-10.18-17.1l-20.74,35.08h-9.12l26.28-43.75
		c0.46-0.8,1.01-1.43,1.63-1.89c0.63-0.46,1.38-0.69,2.26-0.69c0.88,0,1.62,0.23,2.23,0.69c0.61,0.46,1.14,1.09,1.6,1.89
		l26.34,43.75H536.55z"/>
	<path class="st0" d="M607.96,251.32l-8.74-32.12l-12.95,29.73c-0.46,0.97-1.02,1.71-1.67,2.23c-0.65,0.53-1.46,0.79-2.42,0.79
		c-1.84,0-3.21-1.01-4.08-3.02l-12.89-29.73l-8.74,32.12h-7.86l11.76-43c0.54-2.18,1.86-3.27,3.96-3.27c0.84,0,1.62,0.23,2.36,0.69
		c0.73,0.46,1.29,1.13,1.67,2.01l14.08,32.31l14.08-32.31c0.75-1.8,2.03-2.7,3.83-2.7c1.93,0,3.21,1.09,3.83,3.27l11.69,43H607.96z"
		/>
	<path class="st1" d="M355.59,303.47c-3.19,0-6.13-0.6-8.83-1.79c-2.7-1.2-5.05-2.83-7.04-4.91c-1.99-2.07-3.54-4.53-4.65-7.39
		c-1.11-2.85-1.67-5.93-1.67-9.24c0-3.35,0.56-6.41,1.67-9.18c1.11-2.77,2.66-5.12,4.65-7.07c1.99-1.95,4.34-3.46,7.04-4.53
		c2.7-1.07,5.65-1.6,8.83-1.6h24.77v7.98h-24.77c-2.05,0-3.95,0.37-5.69,1.1c-1.74,0.74-3.24,1.75-4.49,3.05
		c-1.26,1.3-2.24,2.85-2.95,4.66c-0.71,1.8-1.07,3.79-1.07,5.97c0,2.14,0.36,4.13,1.07,5.97c0.71,1.85,1.7,3.43,2.95,4.75
		c1.26,1.32,2.75,2.36,4.49,3.11c1.74,0.76,3.64,1.13,5.69,1.13h24.77v7.99H355.59z"/>
	<path class="st1" d="M383.83,303.66v-45.89h7.98v45.89H383.83z M420.6,303.66V283.8h-23.01v-7.11h23.01v-18.92h7.98v45.89H420.6z"
		/>
	<path class="st1" d="M460.38,303.47c-3.19,0-6.13-0.6-8.83-1.79c-2.7-1.2-5.05-2.83-7.04-4.91c-1.99-2.07-3.54-4.53-4.65-7.39
		c-1.11-2.85-1.67-5.93-1.67-9.24c0-3.35,0.56-6.41,1.67-9.18c1.11-2.77,2.66-5.12,4.65-7.07c1.99-1.95,4.34-3.46,7.04-4.53
		c2.7-1.07,5.65-1.6,8.83-1.6h11.12c3.31,0,6.34,0.54,9.09,1.63c2.74,1.09,5.1,2.62,7.07,4.59c1.97,1.97,3.5,4.33,4.59,7.08
		c1.09,2.74,1.63,5.77,1.63,9.08c0,3.31-0.56,6.39-1.67,9.24c-1.11,2.85-2.66,5.32-4.65,7.39c-1.99,2.08-4.35,3.71-7.07,4.91
		c-2.72,1.19-5.72,1.79-8.99,1.79H460.38z M471.5,295.49c2.1,0,4.02-0.37,5.78-1.13c1.76-0.75,3.28-1.79,4.56-3.11
		c1.28-1.32,2.27-2.9,2.99-4.75c0.71-1.84,1.07-3.83,1.07-5.97c0-2.14-0.36-4.12-1.07-5.94c-0.71-1.83-1.71-3.39-2.99-4.69
		c-1.28-1.3-2.8-2.31-4.56-3.05c-1.76-0.73-3.69-1.1-5.78-1.1h-11.12c-2.05,0-3.95,0.37-5.69,1.1c-1.74,0.74-3.24,1.75-4.49,3.05
		c-1.26,1.3-2.24,2.85-2.95,4.66c-0.71,1.8-1.07,3.79-1.07,5.97c0,2.14,0.36,4.13,1.07,5.97c0.71,1.85,1.7,3.43,2.95,4.75
		c1.26,1.32,2.75,2.36,4.49,3.11c1.74,0.76,3.64,1.13,5.69,1.13H471.5z"/>
	<path class="st1" d="M521.23,303.47c-3.19,0-6.13-0.6-8.83-1.79c-2.7-1.2-5.05-2.83-7.04-4.91c-1.99-2.07-3.54-4.53-4.65-7.39
		c-1.11-2.85-1.67-5.93-1.67-9.24c0-3.35,0.56-6.41,1.67-9.18c1.11-2.77,2.66-5.12,4.65-7.07c1.99-1.95,4.34-3.46,7.04-4.53
		c2.7-1.07,5.65-1.6,8.83-1.6h11.12c3.31,0,6.34,0.54,9.09,1.63c2.74,1.09,5.1,2.62,7.07,4.59c1.97,1.97,3.5,4.33,4.59,7.08
		c1.09,2.74,1.63,5.77,1.63,9.08c0,3.31-0.56,6.39-1.67,9.24c-1.11,2.85-2.66,5.32-4.65,7.39c-1.99,2.08-4.35,3.71-7.07,4.91
		c-2.72,1.19-5.72,1.79-8.99,1.79H521.23z M532.35,295.49c2.1,0,4.02-0.37,5.78-1.13c1.76-0.75,3.28-1.79,4.56-3.11
		s2.27-2.9,2.99-4.75c0.71-1.84,1.07-3.83,1.07-5.97c0-2.14-0.36-4.12-1.07-5.94c-0.71-1.83-1.71-3.39-2.99-4.69
		s-2.8-2.31-4.56-3.05c-1.76-0.73-3.69-1.1-5.78-1.1h-11.12c-2.05,0-3.95,0.37-5.69,1.1c-1.74,0.74-3.24,1.75-4.49,3.05
		c-1.26,1.3-2.24,2.85-2.95,4.66c-0.71,1.8-1.07,3.79-1.07,5.97c0,2.14,0.36,4.13,1.07,5.97c0.71,1.85,1.7,3.43,2.95,4.75
		c1.26,1.32,2.75,2.36,4.49,3.11c1.74,0.76,3.64,1.13,5.69,1.13H532.35z"/>
	<path class="st1" d="M563.21,303.47v-45.7h7.98v37.71h30.74v7.99H563.21z"/>
</g>
</svg>
