<?xml version="1.0"?>
<svg xmlns="http://www.w3.org/2000/svg" id="Layer_3" enable-background="new 0 0 64 64" height="512px" viewBox="0 0 64 64" width="512px" class=""><g><g><path d="m16.449 16.818c-.392-.355-.783-.716-1.168-1.1-.383-.384-.744-.774-1.097-1.165-1.828 2.41-2.342 4.093-2.162 4.466.357.155 2.026-.371 4.427-2.201z" data-original="#000000" class="active-path" data-old_color="#000000" fill="#FFFFFF"/><path d="m24 43c-1.104 0-2 .897-2 2s.896 2 2 2c1.103 0 1.999-.897 1.999-2 0-1.104-.896-2-1.999-2z" data-original="#000000" class="active-path" data-old_color="#000000" fill="#FFFFFF"/><path d="m15.28 10.282c.384-.384.775-.745 1.166-1.099-2.403-1.824-4.08-2.336-4.467-2.161-.149.343.373 2.018 2.203 4.425.354-.391.714-.781 1.098-1.165z" data-original="#000000" class="active-path" data-old_color="#000000" fill="#FFFFFF"/><path d="m19.999 36c-.73 0-1.45.042-2.168.083-.476 1.677-2.004 2.916-3.831 2.916-1.345 0-2.53-.672-3.256-1.692-2.567.864-3.744 1.947-3.744 2.693 0 1.631 5.063 4 13 4 .048 0 .095-.002.143-.002.447-1.72 1.999-2.998 3.857-2.998 1.544 0 2.872.889 3.538 2.175 3.574-.86 5.461-2.209 5.461-3.175 0-1.632-5.063-4-13-4z" data-original="#000000" class="active-path" data-old_color="#000000" fill="#FFFFFF"/><path d="m2.999 57c0 2.206 1.794 4 4 4h47.001v-3h-45v-2h45v-3h-47.001c-2.206 0-4 1.793-4 4z" data-original="#000000" class="active-path" data-old_color="#000000" fill="#FFFFFF"/><path d="m20.718 15.717c0 .001 0 .001 0 0-.384.385-.776.745-1.167 1.099 2.409 1.83 4.092 2.349 4.467 2.16.149-.343-.373-2.018-2.203-4.425-.353.392-.713.782-1.097 1.166z" data-original="#000000" class="active-path" data-old_color="#000000" fill="#FFFFFF"/><path d="m16.695 14.304c.449.448.883.855 1.304 1.231.421-.375.855-.782 1.303-1.231.449-.449.855-.883 1.23-1.304-.375-.421-.782-.855-1.23-1.304-.449-.449-.884-.856-1.305-1.232-.42.374-.855.784-1.302 1.232-.449.449-.855.883-1.23 1.304.375.421.782.855 1.23 1.304z" data-original="#000000" class="active-path" data-old_color="#000000" fill="#FFFFFF"/><path d="m21.815 11.446c1.828-2.41 2.342-4.092 2.162-4.466-.037-.016-.089-.024-.154-.024-.554 0-2.121.593-4.271 2.227.391.354.782.715 1.166 1.099.383.383.743.774 1.097 1.164z" data-original="#000000" class="active-path" data-old_color="#000000" fill="#FFFFFF"/><path d="m14 36.999c1.103 0 1.999-.897 1.999-2s-.896-2-1.999-2c-1.104 0-2 .897-2 2s.896 2 2 2z" data-original="#000000" class="active-path" data-old_color="#000000" fill="#FFFFFF"/><path d="m49 13h-10.001c-.552 0-1 .448-1 1 0 .551.448 1 1 1h10.001c.551 0 .998-.448.998-.999 0-.553-.447-1.001-.998-1.001z" data-original="#000000" class="active-path" data-old_color="#000000" fill="#FFFFFF"/><path d="m53 3h-49.001c-.552 0-1 .448-1 1v48.54c1.063-.954 2.462-1.54 4-1.54h47.001v-47c0-.552-.449-1-1-1zm-42.043 7.156c-1.146-2.128-1.27-3.665-.367-4.566.902-.901 2.438-.778 4.565.368.898.484 1.864 1.137 2.844 1.907.98-.77 1.945-1.423 2.844-1.907 2.128-1.146 3.664-1.269 4.566-.368.901.901.778 2.438-.368 4.566-.484.898-1.136 1.864-1.907 2.844.77.98 1.423 1.945 1.907 2.844 1.146 2.128 1.27 3.665.367 4.566-.396.397-.916.595-1.555.595-.812 0-1.819-.321-3.011-.963-.898-.484-1.864-1.137-2.844-1.907-.98.77-1.945 1.423-2.844 1.907-1.191.642-2.198.963-3.011.963-.639 0-1.158-.198-1.556-.595-.901-.901-.778-2.438.368-4.566.484-.898 1.136-1.864 1.907-2.844-.768-.981-1.421-1.946-1.905-2.844zm-2.958 12.844h19.999v2h-19.999zm0 4h19.999v2h-19.999zm19.986 18.135c-.073 2.141-1.827 3.864-3.985 3.864-1.859 0-3.412-1.28-3.859-3.001-.047 0-.093.002-.141.002-7.272 0-15-2.103-15-6 0-1.86 1.793-3.459 5.044-4.563-.016-.146-.044-.288-.044-.437 0-2.206 1.794-4 4-4 1.881 0 3.452 1.31 3.877 3.063.702-.038 1.41-.063 2.122-.063 7.272 0 15 2.103 15 6 0 2.225-2.543 4.075-7.014 5.135zm22.013-28.32v26.185c0 3.308-2.69 5.999-5.998 5.999-3.31 0-6.001-2.691-6.001-5.999v-26.185c-1.161-.414-2-1.513-2-2.815 0-1.655 1.346-3 3-3h10.001c1.653 0 2.998 1.346 2.998 3 0 1.302-.839 2.401-2 2.815z" data-original="#000000" class="active-path" data-old_color="#000000" fill="#FFFFFF"/><path d="m39.999 25.382 1.288-.644c1.144-.571 2.517-.349 3.419.555.293.294.741.366 1.111.18l2.181-1.091v-7.383h-7.999z" data-original="#000000" class="active-path" data-old_color="#000000" fill="#FFFFFF"/><path d="m58.141 40.485 2.091-3.485h-4.232v8h4.232l-2.092-3.485c-.189-.318-.189-.714.001-1.03z" data-original="#000000" class="active-path" data-old_color="#000000" fill="#FFFFFF"/><path d="m43.292 26.707c-.293-.294-.737-.363-1.111-.18l-2.182 1.09v15.383c0 2.205 1.794 3.999 4 3.999 2.205 0 3.999-1.794 3.999-3.999v-16.382l-1.286.643c-1.146.574-2.518.348-3.42-.554zm.707 11.292h-1.999v-2h1.999zm0-5.999h1.999v2h-1.999zm2 9.999h-1.999v-2h1.999z" data-original="#000000" class="active-path" data-old_color="#000000" fill="#FFFFFF"/></g></g> </svg>
