<?xml version="1.0"?>
<svg xmlns="http://www.w3.org/2000/svg" xmlns:xlink="http://www.w3.org/1999/xlink" version="1.1" id="Capa_1" x="0px" y="0px" width="512px" height="512px" viewBox="0 0 45.378 45.378" style="enable-background:new 0 0 45.378 45.378;" xml:space="preserve" class=""><g><g>
	<path d="M45.378,29.455c0-0.93-0.755-1.685-1.686-1.685h-3.146v-5.19h3.146c0.931,0,1.686-0.755,1.686-1.685   c0-0.933-0.755-1.688-1.686-1.688h-15.18l2.344-1.979c0.641-0.537,0.849-1.431,0.517-2.193l-2.838-6.55l3.083-2.546   c0.646-0.534,0.863-1.437,0.527-2.206c-0.334-0.771-1.139-1.229-1.973-1.122l-16.05,2.061c-0.354,0.045-0.688,0.189-0.963,0.417   L0.685,15.395c-0.647,0.536-0.863,1.438-0.529,2.208c0.293,0.676,0.951,1.087,1.671,1.11v8.738   c-0.567,0.471-0.938,1.171-0.938,1.967c0,1.414,1.147,2.563,2.563,2.563s2.563-1.147,2.563-2.563c0-0.796-0.369-1.496-0.938-1.967   v-9.104l1.019-0.132l1.864,4.304c-0.399,0.8-0.632,1.701-0.632,2.655c0,2.85,2.008,5.231,4.682,5.821   c-2.674,0.589-4.682,2.976-4.682,5.82c0,3.29,2.678,5.966,5.966,5.966h30.398c0.931,0,1.686-0.754,1.686-1.686   s-0.755-1.687-1.686-1.687h-3.145v-5.188h3.145c0.931,0,1.686-0.756,1.686-1.687c0-0.688-0.416-1.28-1.009-1.541   C44.962,30.736,45.378,30.145,45.378,29.455z M19.599,38.757c0,0.16-0.092,0.308-0.234,0.377c-0.059,0.027-0.121,0.042-0.184,0.042   c-0.092,0-0.184-0.029-0.258-0.089l-2.143-1.683l-2.143,1.683c-0.125,0.099-0.297,0.116-0.441,0.047   c-0.145-0.069-0.234-0.217-0.234-0.377V34.37c0-0.229,0.188-0.419,0.418-0.419h4.801c0.23,0,0.418,0.188,0.418,0.419V38.757   L19.599,38.757z M19.599,27.174c0,0.159-0.092,0.308-0.234,0.377c-0.059,0.027-0.121,0.042-0.184,0.042   c-0.092,0-0.184-0.029-0.258-0.089l-2.143-1.683l-2.143,1.683c-0.125,0.099-0.297,0.116-0.441,0.047   c-0.145-0.069-0.234-0.218-0.234-0.377v-4.387c0-0.229,0.188-0.419,0.418-0.419h4.801c0.23,0,0.418,0.188,0.418,0.419V27.174   L19.599,27.174z" data-original="#000000" class="active-path" data-old_color="#000000" fill="#FFFFFF"/>
</g></g> </svg>
