<?xml version="1.0"?>
<svg xmlns="http://www.w3.org/2000/svg" id="Layer_3" enable-background="new 0 0 64 64" height="512px" viewBox="0 0 64 64" width="512px" class=""><g><path d="m9 3h-5c-.552 0-1 .449-1 1v47h6z" data-original="#000000" class="active-path" data-old_color="#000000" fill="#FFFFFF"/><path d="m32 34.586 2.586-2.586-2.586-2.586c-.268-.267-.622-.414-1-.414s-.732.147-1 .415l-.586.585c-.268.267-.414.622-.414 1s.146.733.414 1z" data-original="#000000" class="active-path" data-old_color="#000000" fill="#FFFFFF"/><path d="m31.105 53.553.011.006c.047-.094.098-.187.176-.265l.294-.294h-28.586v1c0 .552.448 1 1 1h26.382z" data-original="#000000" class="active-path" data-old_color="#000000" fill="#FFFFFF"/><path d="m39.586 45-11.586-11.586c-.645-.644-1-1.501-1-2.414s.355-1.77 1-2.415l.586-.585c1.291-1.29 3.537-1.29 4.828 0l9.586 9.586v-34.586h-32v48h22.586zm-26.586-23v-16c0-.552.447-1 1-1h26c.553 0 1 .448 1 1v16c0 .552-.447 1-1 1h-26c-.553 0-1-.448-1-1z" data-original="#000000" class="active-path" data-old_color="#000000" fill="#FFFFFF"/><path d="m15 21h24v-14h-24zm16-5.586v3.586h-2v-3.586l-1.707-1.707 1.414-1.414 1.293 1.293 1.293-1.293 1.414 1.414zm-12.293-1.121 1.902 1.902 2.454-6.546c.147-.39.52-.649.937-.649h13v2h-12.307l-2.757 7.351c-.119.318-.393.554-.725.626-.069.016-.141.023-.211.023-.263 0-.518-.104-.707-.293l-3-3z" data-original="#000000" class="active-path" data-old_color="#000000" fill="#FFFFFF"/><path d="m46.136 36.672h10.728v3.657h-10.728z" transform="matrix(.707 -.707 .707 .707 -12.14 47.693)" data-original="#000000" class="active-path" data-old_color="#000000" fill="#FFFFFF"/><path d="m55.688 57.726 4.076 2.038-2.038-4.076z" data-original="#000000" class="active-path" data-old_color="#000000" fill="#FFFFFF"/><path d="m60.586 30-.586-.586c-.535-.534-1.465-.535-2 0l-2.586 2.586 2.586 2.586 2.586-2.586c.268-.267.414-.622.414-1s-.146-.733-.414-1z" data-original="#000000" class="active-path" data-old_color="#000000" fill="#FFFFFF"/><path d="m43.171 30.444h3.657v29.113h-3.657z" transform="matrix(.707 -.707 .707 .707 -18.64 45)" data-original="#000000" class="active-path" data-old_color="#000000" fill="#FFFFFF"/><path d="m33.136 49.671h10.728v3.657h-10.728z" transform="matrix(.707 -.707 .707 .707 -25.14 42.308)" data-original="#000000" class="active-path" data-old_color="#000000" fill="#FFFFFF"/><path d="m43 55v-2.586l-2.586 2.586z" data-original="#000000" class="active-path" data-old_color="#000000" fill="#FFFFFF"/><path d="m30.236 59.764 4.076-2.038-2.038-2.038z" data-original="#000000" class="active-path" data-old_color="#000000" fill="#FFFFFF"/><path d="m62 6h-4v-4h-4v4h-4v4h4v4h4v-4h4z" data-original="#000000" class="active-path" data-old_color="#000000" fill="#FFFFFF"/><path d="m50 20h12v4h-12z" data-original="#000000" class="active-path" data-old_color="#000000" fill="#FFFFFF"/></g> </svg>
