<?xml version="1.0"?>
<svg xmlns="http://www.w3.org/2000/svg" id="_x33_0" enable-background="new 0 0 64 64" height="512px" viewBox="0 0 64 64" width="512px" class=""><g><g><path d="m57 61h-2v-12h-6v12h-2v-8h-6v8h-2v-4h-6v4h-2v-6.89c0-.515-.035-1.021-.071-1.528l11.037-7.358 3.982 2.986 17.818-11.136-5.166-3.874-1.2 1.6 2.833 2.125-14.182 8.864-4.018-3.014-11.373 7.583c-1.067-5.986-4.64-11.132-9.66-14.262v-5.097h1v.001c.005 0 .01-.001.014-.001h35.986c1.654 0 3-1.346 3-3 0-.395-.081-.77-.22-1.115 1.275-.346 2.22-1.502 2.22-2.884 0-.771-.301-1.468-.78-2 .48-.532.78-1.229.78-2s-.301-1.468-.78-2c.48-.532.78-1.229.78-2 0-1.654-1.346-3-2.999-3h-5.001c-1.103 0-2-.898-2-2v-5c0-1.336-.521-2.591-1.465-3.536-.944-.944-2.199-1.464-3.534-1.464h-.001c-1.654 0-3 1.346-3 3v2.472c0 1.826-.973 3.545-2.539 4.485-1.479.888-2.594 2.278-3.138 3.913l-.014.042-12.335-1.451c-.049-1.037-.298-2.048-.742-2.983 1.703-1.639 2.768-3.935 2.768-6.478 0-1.654-1.346-3-3-3h-10.403c-8.049 0-14.597 6.548-14.597 14.597 0 5.564 3.092 10.567 8.068 13.056l1.932.965v3.788c-3.715 2.106-6 5.994-6 10.302v19.292h58v-18h-6zm-28.506-11.206-8.925-5.949 2.167-2.167-9.563-4.25.575-2.301c7.869 1.231 14.017 7.128 15.746 14.667zm14.996-37.122c2.165-1.299 3.51-3.675 3.51-6.2v-2.472c0-.552.448-1 1-1h.001c.801 0 1.554.312 2.12.878s.879 1.32.879 2.122v5c0 2.205 1.794 4 4 4h5.001c.551 0 .999.448.999 1s-.448 1-1 1h-7v2h7c.552 0 1 .448 1 1s-.448 1-1 1h-7v2h7c.552 0 1 .448 1 1s-.448 1-1 1h-7v2h5c.552 0 1 .448 1 1s-.448 1-1 1h-17v-12.838l.221-.66c.393-1.183 1.199-2.188 2.269-2.83zm-4.49 16.327h-13.024c.634-.838 1.024-1.87 1.024-2.999v-4.382l.247-.124c1.081-.54 1.753-1.627 1.753-2.836 0-.629-.185-1.237-.533-1.76l-.903-1.354 11.436 1.345zm-14-15.17v.566c0 .593.174 1.168.504 1.664l1.299 1.949c.129.193.197.418.197.65 0 .447-.248.848-.647 1.048l-.247.124c-.682.34-1.106 1.025-1.106 1.788v4.382c0 1.649-1.338 2.99-2.986 2.999h-5.014v2h2v4.005c-1.859-.897-3.872-1.529-6-1.856v-9.648l-3.066-2.3c-.585-.438-.934-1.136-.934-1.867 0-1.286 1.047-2.333 2.333-2.333h1.667v-1.877c0-1.224.741-2.303 1.845-2.763.624.401 1.36.64 2.155.64h3c1.68 0 3.247-.471 4.594-1.275.26.669.406 1.379.406 2.104zm-15.037 13.034c-4.295-2.147-6.963-6.464-6.963-11.266 0-6.946 5.65-12.597 12.597-12.597h10.403c.552 0 1 .449 1 1 0 3.86-3.141 7-7 7h-3c-1.103 0-2-.897-2-2s.897-2 2-2v-2c-2.206 0-4 1.794-4 4 0 .662.177 1.278.463 1.829-1.463.864-2.424 2.425-2.462 4.184-2.234.17-4.001 2.043-4.001 4.32 0 1.356.647 2.652 1.733 3.466l2.267 1.701v2.882zm19.037 34.137h-14v-14.172c0-2.061-.836-4.078-2.293-5.535l-1.414 1.414c1.085 1.085 1.707 2.587 1.707 4.121v14.172h-6v-17.292c0-2.912 1.269-5.581 3.398-7.423l-.572 2.288 8.438 3.75-1.833 1.833 12.494 8.33c.045.536.075 1.077.075 1.624zm22-10h2v10h-2zm-8 4h2v6h-2zm-8 4h2v2h-2zm24-12h2v14h-2z" data-original="#000000" class="active-path" data-old_color="#000000" fill="#022447"/><path d="m31 37h2v2h-2z" data-original="#000000" class="active-path" data-old_color="#000000" fill="#022447"/><path d="m35 37h2v2h-2z" data-original="#000000" class="active-path" data-old_color="#000000" fill="#022447"/><path d="m39 37h2v2h-2z" data-original="#000000" class="active-path" data-old_color="#000000" fill="#022447"/></g></g> </svg>
